<svg xmlns="http://www.w3.org/2000/svg" width="89" height="34" viewBox="0 0 89 34" fill="none"><path fill-rule="evenodd" clip-rule="evenodd" d="M9.76642 27.0131C8.04485 27.0131 6.49317 26.628 5.11138 25.8579C3.72959 25.065 2.63095 23.9664 1.81547 22.562C1.02264 21.1575 0.626221 19.5039 0.626221 17.6011C0.626221 15.6757 1.02264 14.0107 1.81547 12.6063C2.63095 11.2018 3.72959 10.1145 5.11138 9.34434C6.49317 8.57416 8.04485 8.18907 9.76642 8.18907C11.3068 8.18907 12.6546 8.52886 13.8099 9.20842C14.3405 9.52058 14.8162 9.90682 15.237 10.3671V8.4609H20.5376V26.7413H15.4748V24.6305C15.0176 25.182 14.4853 25.6364 13.8778 25.9938C12.7452 26.6733 11.3747 27.0131 9.76642 27.0131ZM10.6838 22.6639C11.5446 22.6639 12.3261 22.46 13.0284 22.0523C13.7306 21.6445 14.2856 21.0669 14.6933 20.3194C15.1237 19.5492 15.3389 18.6431 15.3389 17.6011C15.3389 16.5364 15.1237 15.6304 14.6933 14.8828C14.2856 14.1353 13.7306 13.5577 13.0284 13.1499C12.3261 12.7422 11.5446 12.5383 10.6838 12.5383C9.8004 12.5383 9.00757 12.7422 8.30535 13.1499C7.60313 13.5577 7.03682 14.1353 6.60643 14.8828C6.19869 15.6304 5.99481 16.5364 5.99481 17.6011C5.99481 18.6431 6.19869 19.5492 6.60643 20.3194C7.03682 21.0669 7.60313 21.6445 8.30535 22.0523C9.00757 22.46 9.8004 22.6639 10.6838 22.6639Z" fill="#2D2B28"></path><path fill-rule="evenodd" clip-rule="evenodd" d="M34.0416 33.6049C32.3201 33.6049 30.6551 33.3898 29.0468 32.9594C27.4611 32.5516 26.136 31.9287 25.0713 31.0905L27.178 27.285C27.9482 27.9192 28.9222 28.4176 30.1001 28.78C31.3007 29.1651 32.4786 29.3576 33.6339 29.3576C35.514 29.3576 36.8732 28.9386 37.7113 28.1004C38.5721 27.2623 39.0025 26.0164 39.0025 24.3628V23.571C38.5141 24.1144 37.9478 24.5596 37.3036 24.9065C36.1256 25.5407 34.7665 25.8579 33.2261 25.8579C31.5272 25.8579 29.9869 25.4954 28.6051 24.7706C27.2459 24.023 26.1473 22.9923 25.3092 21.6785C24.4937 20.342 24.0859 18.7903 24.0859 17.0235C24.0859 15.2339 24.4937 13.6823 25.3092 12.3684C26.1473 11.0319 27.2459 10.0013 28.6051 9.27638C29.9869 8.55151 31.5272 8.18907 33.2261 8.18907C34.7665 8.18907 36.1256 8.5062 37.3036 9.14047C38.0711 9.53899 38.728 10.0866 39.2743 10.7832V8.4609H44.3031V23.6832C44.3031 27.0811 43.4197 29.5842 41.6528 31.1925C39.8859 32.8008 37.3489 33.6049 34.0416 33.6049ZM34.2795 21.5086C35.2082 21.5086 36.035 21.3274 36.7599 20.965C37.4848 20.5799 38.0511 20.0475 38.4588 19.368C38.8666 18.6884 39.0704 17.9069 39.0704 17.0235C39.0704 16.1174 38.8666 15.3359 38.4588 14.679C38.0511 13.9994 37.4848 13.4784 36.7599 13.1159C36.035 12.7309 35.2082 12.5383 34.2795 12.5383C33.3507 12.5383 32.5239 12.7309 31.7991 13.1159C31.0742 13.4784 30.4965 13.9994 30.0662 14.679C29.6584 15.3359 29.4545 16.1174 29.4545 17.0235C29.4545 17.9069 29.6584 18.6884 30.0662 19.368C30.4965 20.0475 31.0742 20.5799 31.7991 20.965C32.5239 21.3274 33.3507 21.5086 34.2795 21.5086Z" fill="#2D2B28"></path><path d="M66.0145 27.0131C63.9532 27.0131 62.3449 26.4695 61.1896 25.3822C60.0343 24.2949 59.4567 22.7318 59.4567 20.6931V1.5293H64.7573V20.3873C64.7573 21.1575 64.9499 21.7578 65.335 22.1882C65.7427 22.5959 66.309 22.7998 67.0339 22.7998C67.3284 22.7998 67.6115 22.7658 67.8834 22.6979C68.1552 22.6299 68.3704 22.5506 68.529 22.46L68.7668 26.5714C68.3137 26.7073 67.8494 26.8093 67.3737 26.8772C66.9206 26.9678 66.4676 27.0131 66.0145 27.0131Z" fill="#2D2B28"></path><path fill-rule="evenodd" clip-rule="evenodd" d="M74.605 25.7899C76.1906 26.6054 78.0255 27.0131 80.1095 27.0131C81.7631 27.0131 83.2242 26.764 84.4927 26.2656C85.7612 25.7446 86.8146 25.0084 87.6527 24.057L84.8325 20.9989C84.1982 21.5879 83.5187 22.0296 82.7938 22.3241C82.0689 22.6186 81.2195 22.7658 80.2454 22.7658C79.1354 22.7658 78.1727 22.562 77.3572 22.1542C76.5644 21.7465 75.9528 21.1349 75.5224 20.3194C75.4758 20.2311 75.4318 20.1407 75.3903 20.0479L88.9099 17.4312C88.9099 15.4831 88.4795 13.8182 87.6187 12.4364C86.7579 11.0546 85.614 10.0013 84.1869 9.27638C82.7598 8.55151 81.1855 8.18907 79.4639 8.18907C77.5838 8.18907 75.9075 8.59681 74.4351 9.41229C72.9627 10.2051 71.7961 11.3151 70.9353 12.7422C70.0972 14.1466 69.6781 15.7663 69.6781 17.6011C69.6781 19.4133 70.1085 21.0329 70.9693 22.46C71.8301 23.8645 73.042 24.9744 74.605 25.7899ZM74.8804 17.0427C74.9082 16.0652 75.0995 15.232 75.4544 14.543C75.8395 13.7729 76.3719 13.1952 77.0514 12.8101C77.7537 12.4024 78.5578 12.1985 79.4639 12.1985C80.37 12.1985 81.1515 12.4024 81.8084 12.8101C82.488 13.1952 83.0203 13.7276 83.4054 14.4071C83.5687 14.6954 83.6974 15.004 83.7915 15.333L74.8804 17.0427Z" fill="#2D2B28"></path><path d="M49.2366 8.4609V26.7413H54.5373V8.4609H49.2366Z" fill="#2D2B28"></path><path d="M49.5084 5.06279C50.12 5.6291 50.9128 5.91225 51.8869 5.91225C52.8836 5.91225 53.6764 5.6291 54.2653 5.06279C54.877 4.47383 55.1828 3.73763 55.1828 2.85419C55.1828 2.01606 54.877 1.33649 54.2653 0.815484C53.6537 0.271828 52.8609 0 51.8869 0C50.9128 0 50.12 0.283154 49.5084 0.849462C48.8967 1.41577 48.5909 2.11799 48.5909 2.95612C48.5909 3.79426 48.8967 4.49648 49.5084 5.06279Z" fill="#E68138"></path></svg>