<svg xmlns="http://www.w3.org/2000/svg" width="114" height="29" viewBox="0 0 114 29" fill="none"><path d="M68.8989 0.668945H75.1527V13.4514H71.2698V3.96763L66.8544 12.18L66.1844 13.4514H63.4183L62.731 12.18L58.3328 3.96763V13.4514H54.45V0.668945H60.6865L64.7927 8.33152L68.8989 0.668945Z" fill="#151515"></path><path d="M81.3079 11.132L80.0537 13.4514H75.9475L82.7854 0.668945H88.2489L95.104 13.4514H90.9806L89.7264 11.132H81.3079ZM85.5172 3.26323L82.7167 8.48615H88.3176L85.5172 3.26323Z" fill="#151515"></path><path d="M106.836 7.06016L114 13.4514H109.086L104.379 9.25928L99.6714 13.4514H94.7577L101.905 7.06016L94.7577 0.668945H99.6714L104.379 4.86103L109.086 0.668945H114L106.836 7.06016Z" fill="#151515"></path><path d="M58.3328 23.6548V28.7231H54.45V15.9407H69.1222V18.5865H58.3328V21.009H68.2976V23.6548H58.3328Z" fill="#151515"></path><path d="M74.2719 28.7231H70.3891V15.9407H74.2719V28.7231Z" fill="#151515"></path><path d="M75.2473 18.5693V15.9407H91.2253V18.5693H85.1777V28.7231H81.2777V18.5693H75.2473Z" fill="#151515"></path><path d="M23.2286 13.8751L18.138 1.99707L0.70166 16.7915H12.8883L24.8194 28.7226H29.5918L24.4785 16.7915H31.978L43.909 28.7226H48.6814L37.2276 1.99707L23.2286 13.8751Z" fill="#E83B30"></path></svg>