<svg xmlns="http://www.w3.org/2000/svg" width="122" height="25" viewBox="0 0 122 25" fill="none"><path d="M0.570312 24.3962L9.20205 0.680664H15.6692C18.0247 0.680664 19.5803 1.13027 20.3361 2.02948C21.0956 2.91881 21.0994 4.39609 20.3478 6.46132C20.247 6.738 20.1499 7.0048 20.0564 7.26171C19.9629 7.51863 19.8589 7.77555 19.7444 8.03247C19.2787 9.10955 18.7082 9.96923 18.0328 10.6115C17.3609 11.2439 16.5031 11.7084 15.4593 12.0048L15.2004 12.7163C16.0599 13.0127 16.5971 13.487 16.8119 14.1392C17.0303 14.7815 16.9573 15.661 16.5929 16.7776C16.4953 17.1036 16.3961 17.405 16.2954 17.6817C16.1947 17.9584 16.0709 18.2697 15.924 18.6155C15.0813 20.6709 13.9757 22.1481 12.6074 23.0473C11.2496 23.9466 9.39292 24.3962 7.03742 24.3962H0.570312ZM6.72658 20.4831H8.46166C9.12414 20.4831 9.68824 20.3201 10.1539 19.994C10.6338 19.658 10.987 19.1788 11.2135 18.5562C11.3106 18.2894 11.406 18.0276 11.4995 17.7706C11.593 17.5137 11.6883 17.2519 11.7854 16.9851C12.1414 16.0068 12.2302 15.3151 12.0517 14.91C11.8873 14.4949 11.4423 14.2874 10.7167 14.2874H8.98162L6.72658 20.4831ZM10.4059 10.3744H12.1409C12.8034 10.3744 13.3855 10.1619 13.8872 9.73702C14.4029 9.30224 14.8029 8.69453 15.087 7.91389C15.1913 7.62733 15.2938 7.34571 15.3945 7.06903C15.4988 6.78246 15.6013 6.50084 15.702 6.22416C15.8927 5.70044 15.8595 5.30024 15.6027 5.02356C15.36 4.737 14.9074 4.59372 14.2449 4.59372H12.5098L10.4059 10.3744Z" fill="#242629"></path><path d="M15.5206 24.3962L24.1523 0.680664H28.8843L21.6768 20.4831H27.8916L26.4673 24.3962H15.5206Z" fill="#242629"></path><path d="M27.7657 24.3962L39.8991 0.680664H47.9751L42.8451 24.3962H37.9869L39.2525 19.4456H34.9621L32.6239 24.3962H27.7657ZM36.828 15.5325H40.235L41.577 10.2854L43.27 4.59372H41.7558L39.3056 10.2854L36.828 15.5325Z" fill="#242629"></path><path d="M44.5067 24.3962L45.8554 20.6906L59.3486 4.59372H52.0928L53.517 0.680664H65.8519L64.4708 4.47514L50.7261 20.4831H58.1712L56.7469 24.3962H44.5067Z" fill="#242629"></path><path d="M58.3122 24.3962L66.9439 0.680664H78.4901L77.0659 4.59372H70.2517L68.1477 10.3744H74.6464L73.2222 14.2874H66.7235L64.4685 20.4831H71.2826L69.8584 24.3962H58.3122Z" fill="#242629"></path><path fill-rule="evenodd" clip-rule="evenodd" d="M81.562 4.42062C81.7529 3.84809 82.2887 3.46191 82.8922 3.46191H100.968C101.925 3.46191 102.6 4.39948 102.298 5.30738L101.511 7.66816H82.4248C81.4678 7.66816 80.7921 6.7306 81.0947 5.8227L81.562 4.42062ZM100.109 11.8744L101.511 7.66816H120.597C121.554 7.66816 122.23 8.60573 121.927 9.51363L121.46 10.9157C121.269 11.4882 120.733 11.8744 120.129 11.8744H100.109ZM98.7066 16.0807H79.6207C78.6637 16.0807 77.9879 15.1431 78.2905 14.2352L78.7579 12.8331C78.9487 12.2606 79.4845 11.8744 80.088 11.8744H100.109L98.7066 16.0807ZM97.3045 20.2869L98.7066 16.0807H117.793C118.75 16.0807 119.425 17.0182 119.123 17.9261L118.655 19.3282C118.465 19.9007 117.929 20.2869 117.325 20.2869H97.3045ZM97.3045 20.2869L96.222 23.5345C96.0312 24.107 95.4954 24.4932 94.8919 24.4932H76.8165C75.8595 24.4932 75.1837 23.5556 75.4864 22.6477L75.9537 21.2456C76.1446 20.6731 76.6804 20.2869 77.2838 20.2869H97.3045Z" fill="#242629"></path></svg>